<?xml version="1.0" encoding="utf-8"?>
<!-- Svg Vector Icons : http://www.onlinewebfonts.com/icon -->
<!DOCTYPE svg PUBLIC "-//W3C//DTD SVG 1.1//EN" "http://www.w3.org/Graphics/SVG/1.1/DTD/svg11.dtd">
<svg version="1.1" xmlns="http://www.w3.org/2000/svg" xmlns:xlink="http://www.w3.org/1999/xlink" x="0px" y="0px" viewBox="0 0 256 256" enable-background="new 0 0 256 256" xml:space="preserve">
<metadata> Svg Vector Icons : http://www.onlinewebfonts.com/icon </metadata>
<g><g><path fill="#000000" d="M243.5,53.5h-32c-1.4,0-2.5,1.1-2.5,2.4v144.2c0,1.3,1.1,2.4,2.5,2.4h32c1.4,0,2.5-1.1,2.5-2.4V55.9C246,54.5,244.9,53.5,243.5,53.5z M134.3,53.5H12.5c-1.4,0-2.5,1.1-2.5,2.4v144.2c0,1.3,1.1,2.4,2.5,2.4h32c1.4,0,2.5-1.1,2.5-2.4V86.9c0-1.3,1.1-2.4,2.5-2.4h68.9c19.4,0,24.9,14.7,24.9,24.1v91.5c0,1.3,1.1,2.4,2.5,2.4h32c1.4,0,2.5-1.1,2.5-2.4V97.8c0-8.5-1-20.6-12-31.3C156.6,55.4,146.1,53.5,134.3,53.5z M111.9,110.9H78.3c-1.4,0-2.5,1.1-2.5,2.4v86.8c0,1.3,1.1,2.4,2.5,2.4h33.6c1.3,0,2.5-1.1,2.5-2.4v-86.8C114.4,112,113.3,110.9,111.9,110.9z"/></g></g>
</svg>